<svg width="45" height="45" viewBox="0 0 45 45" fill="none" xmlns="http://www.w3.org/2000/svg">
<path fill-rule="evenodd" clip-rule="evenodd" d="M23.8257 4.29934C23.4741 3.94783 22.9973 3.75037 22.5001 3.75037C22.0029 3.75037 21.5261 3.94783 21.1745 4.29934L8.04947 17.4243L4.29947 21.1743C4.12038 21.3473 3.97754 21.5542 3.87928 21.783C3.78101 22.0117 3.72928 22.2578 3.72712 22.5067C3.72496 22.7557 3.7724 23.0026 3.86668 23.233C3.96095 23.4634 4.10018 23.6728 4.27623 23.8488C4.45227 24.0249 4.66162 24.1641 4.89205 24.2584C5.12248 24.3527 5.36938 24.4001 5.61834 24.3979C5.8673 24.3958 6.11334 24.344 6.3421 24.2458C6.57086 24.1475 6.77775 24.0047 6.95072 23.8256L7.50009 23.2762V35.625C7.50009 37.1168 8.09272 38.5476 9.14762 39.6024C10.2025 40.6573 11.6332 41.25 13.1251 41.25H31.8751C33.3669 41.25 34.7977 40.6573 35.8526 39.6024C36.9075 38.5476 37.5001 37.1168 37.5001 35.625V23.2762L38.0495 23.8256C38.4031 24.1671 38.8767 24.3561 39.3683 24.3519C39.86 24.3476 40.3302 24.1504 40.6779 23.8027C41.0255 23.4551 41.2227 22.9848 41.227 22.4932C41.2313 22.0016 41.0423 21.528 40.7007 21.1743L23.8257 4.29934Z" fill="#FFDB00"/>
</svg>
