<svg width="27" height="29" viewBox="0 0 27 29" fill="none" xmlns="http://www.w3.org/2000/svg">
<path d="M0.511238 5.82607C0.815458 2.44303 3.70692 0 7.10361 0H19.7877C23.2323 0 26.1598 2.50723 26.47 5.93775C26.6938 8.41255 26.8846 11.4245 26.8846 14.5C26.8846 17.5755 26.6938 20.5874 26.47 23.0623C26.1598 26.4928 23.2323 29 19.7877 29H7.10361C3.70692 29 0.815458 26.557 0.511238 23.1739C0.295635 20.7764 0.115356 17.7884 0.115356 14.5C0.115356 11.2116 0.295635 8.22364 0.511238 5.82607Z" fill="#EEEEEE"/>
<path d="M8.67312 18.6576C8.29993 19.0647 8.32743 19.6973 8.73455 20.0705C9.14167 20.4437 9.77424 20.4162 10.1474 20.009L8.67312 18.6576ZM18.5888 10.3668C18.5648 9.81505 18.0981 9.3872 17.5463 9.41119L8.55482 9.80213C8.00306 9.82612 7.57521 10.2929 7.5992 10.8446C7.62319 11.3964 8.08993 11.8242 8.6417 11.8002L16.6341 11.4527L16.9816 19.4452C17.0056 19.997 17.4724 20.4248 18.0241 20.4008C18.5759 20.3768 19.0037 19.9101 18.9798 19.3583L18.5888 10.3668ZM10.1474 20.009L18.3269 11.086L16.8526 9.73452L8.67312 18.6576L10.1474 20.009Z" fill="#2C2B29"/>
</svg>
