<svg width="58" height="41" viewBox="0 0 58 41" fill="none" xmlns="http://www.w3.org/2000/svg">
<rect x="0.292857" y="0.292857" width="57.4" height="40.4143" rx="20.2071" fill="#1A0AF6" stroke="#1A0AF6" stroke-width="0.585714"/>
<path d="M20.6631 25.3V16.2051H25.9064C27.1247 16.2051 28.0478 16.4112 28.6757 16.8236C29.3129 17.2266 29.6315 17.831 29.6315 18.637C29.6315 19.1524 29.505 19.56 29.252 19.8599C28.999 20.1504 28.6382 20.366 28.1696 20.5066C27.7104 20.6471 27.1669 20.7362 26.539 20.7736L26.5952 20.6752C27.0544 20.6846 27.4855 20.7174 27.8885 20.7736C28.3008 20.8299 28.6616 20.933 28.9709 21.0829C29.2801 21.2328 29.5238 21.4437 29.7018 21.7155C29.8799 21.9779 29.9689 22.3246 29.9689 22.7557C29.9689 23.318 29.819 23.7866 29.5191 24.1614C29.2192 24.5269 28.8022 24.8034 28.268 24.9908C27.7338 25.1782 27.1153 25.2813 26.4125 25.3H20.6631ZM22.5327 23.7538H26.2157C26.8061 23.7538 27.2606 23.66 27.5792 23.4726C27.8978 23.2758 28.0571 22.9666 28.0571 22.5448C28.0571 22.2356 27.9634 22.0107 27.776 21.8701C27.5886 21.7295 27.3402 21.6452 27.031 21.6171C26.7217 21.5796 26.389 21.5608 26.0329 21.5608H22.5327V23.7538ZM22.5327 20.0567H25.8361C26.4265 20.0567 26.881 19.9724 27.1997 19.8037C27.5183 19.6256 27.6776 19.3258 27.6776 18.904C27.6776 18.4823 27.5183 18.1871 27.1997 18.0184C26.881 17.8404 26.4593 17.7514 25.9345 17.7514H22.5327V20.0567Z" fill="#F7D2D2"/>
<path d="M37.7604 22.9806H39.5316C39.4566 23.4586 39.2552 23.885 38.9272 24.2598C38.6085 24.6347 38.1728 24.9299 37.6198 25.1454C37.0669 25.361 36.3922 25.4687 35.5956 25.4687C34.7053 25.4687 33.9181 25.3282 33.234 25.047C32.5499 24.7565 32.0157 24.3395 31.6315 23.7959C31.2473 23.2524 31.0552 22.5964 31.0552 21.8279C31.0552 21.0595 31.2426 20.4035 31.6174 19.8599C31.9923 19.307 32.5124 18.8853 33.1778 18.5948C33.8525 18.3043 34.6397 18.159 35.5394 18.159C36.4578 18.159 37.2216 18.3043 37.8307 18.5948C38.4398 18.8853 38.8897 19.3258 39.1802 19.9162C39.4801 20.4972 39.6066 21.2422 39.5597 22.1512H32.8966C32.9435 22.5074 33.0747 22.8307 33.2902 23.1212C33.5152 23.4117 33.815 23.6413 34.1899 23.81C34.5741 23.9787 35.0286 24.063 35.5534 24.063C36.1345 24.063 36.6171 23.9646 37.0013 23.7678C37.3949 23.5616 37.648 23.2992 37.7604 22.9806ZM35.455 19.5507C34.7803 19.5507 34.2321 19.7006 33.8104 20.0005C33.3886 20.291 33.1169 20.6518 32.995 21.0829H37.7464C37.6995 20.6143 37.4746 20.2442 37.0716 19.9724C36.678 19.6912 36.1392 19.5507 35.455 19.5507Z" fill="#F7D2D2"/>
</svg>
