<svg width="13" height="11" viewBox="0 0 13 11" fill="none" xmlns="http://www.w3.org/2000/svg">
<path d="M7.3067 1.4467C7.3067 1.13987 7.05797 0.891144 6.75114 0.891144C6.44432 0.891144 6.19559 1.13987 6.19559 1.4467L7.3067 1.4467ZM6.35831 8.64194C6.57526 8.8589 6.92702 8.8589 7.14398 8.64194L10.6795 5.1064C10.8965 4.88945 10.8965 4.53769 10.6795 4.32073C10.4626 4.10377 10.1108 4.10377 9.89384 4.32073L6.75114 7.46343L3.60845 4.32073C3.39149 4.10377 3.03973 4.10377 2.82277 4.32073C2.60581 4.53769 2.60581 4.88945 2.82277 5.1064L6.35831 8.64194ZM6.19559 1.4467V8.2491L7.3067 8.2491V1.4467L6.19559 1.4467Z" fill="#1A0AF6"/>
<path d="M1 10.5H12.5" stroke="#1A0AF6" stroke-linecap="round"/>
</svg>
