<svg width="58" height="41" viewBox="0 0 58 41" fill="none" xmlns="http://www.w3.org/2000/svg">
<rect x="0.292857" y="0.292857" width="57.4" height="40.4143" rx="20.2071" fill="#1A0AF6" stroke="#1A0AF6" stroke-width="0.585714"/>
<g clip-path="url(#clip0_1153_67)">
<path d="M29 12C24.5827 12 21 15.582 21 20C21 23.5347 23.292 26.5333 26.4713 27.5913C26.8707 27.6653 27 27.4173 27 27.2067V25.7173C24.7747 26.2013 24.3113 24.7733 24.3113 24.7733C23.9473 23.8487 23.4227 23.6027 23.4227 23.6027C22.6967 23.106 23.478 23.1167 23.478 23.1167C24.2813 23.1727 24.704 23.9413 24.704 23.9413C25.4173 25.164 26.5753 24.8107 27.032 24.606C27.1033 24.0893 27.3107 23.736 27.54 23.5367C25.7633 23.3333 23.8953 22.6473 23.8953 19.5827C23.8953 18.7087 24.208 17.9953 24.7193 17.4353C24.6367 17.2333 24.3627 16.4193 24.7973 15.318C24.7973 15.318 25.4693 15.1033 26.998 16.138C27.636 15.9607 28.32 15.872 29 15.8687C29.68 15.872 30.3647 15.9607 31.004 16.138C32.5313 15.1033 33.202 15.318 33.202 15.318C33.6373 16.42 33.3633 17.234 33.2807 17.4353C33.794 17.9953 34.104 18.7093 34.104 19.5827C34.104 22.6553 32.2327 23.332 30.4513 23.53C30.738 23.778 31 24.2647 31 25.0113V27.2067C31 27.4193 31.128 27.6693 31.534 27.5907C34.7107 26.5313 37 23.5333 37 20C37 15.582 33.418 12 29 12Z" fill="#F7D2D2"/>
</g>
<defs>
<clipPath id="clip0_1153_67">
<rect width="16" height="16" fill="white" transform="translate(21 12)"/>
</clipPath>
</defs>
</svg>
