<svg width="10" height="10" viewBox="0 0 10 10" fill="none" xmlns="http://www.w3.org/2000/svg">
<path d="M0.607163 8.10716C0.390205 8.32412 0.390205 8.67588 0.607163 8.89284C0.824121 9.1098 1.17588 9.1098 1.39284 8.89284L0.607163 8.10716ZM9.05556 1C9.05556 0.693175 8.80683 0.444444 8.5 0.444444H3.5C3.19318 0.444444 2.94444 0.693175 2.94444 1C2.94444 1.30682 3.19318 1.55556 3.5 1.55556H7.94444V6C7.94444 6.30683 8.19318 6.55556 8.5 6.55556C8.80683 6.55556 9.05556 6.30683 9.05556 6V1ZM1.39284 8.89284L8.89284 1.39284L8.10716 0.607163L0.607163 8.10716L1.39284 8.89284Z" fill="#1A0AF6"/>
</svg>
