<svg width="59" height="41" viewBox="0 0 59 41" fill="none" xmlns="http://www.w3.org/2000/svg">
<rect x="0.578502" y="0.292857" width="57.4" height="40.4143" rx="20.2071" stroke="#1A0AF6" stroke-width="0.585714"/>
<path d="M25.7271 15.2492V16.8517H23.6045V15.2492H25.7271ZM23.7451 18.3137H25.5725V25.3001H23.7451V18.3137Z" fill="#1A0AF6"/>
<path d="M27.394 18.3137H29.2214V25.3001H27.394V18.3137ZM32.4686 18.159C32.8997 18.159 33.298 18.2153 33.6635 18.3277C34.029 18.4402 34.3476 18.6135 34.6194 18.8478C34.8911 19.0821 35.102 19.382 35.2519 19.7475C35.4019 20.1036 35.4768 20.53 35.4768 21.0267V25.3001H33.6494V21.35C33.6494 20.7596 33.5042 20.3285 33.2136 20.0567C32.9325 19.7756 32.4686 19.635 31.822 19.635C31.3347 19.635 30.8942 19.7288 30.5006 19.9162C30.107 20.1036 29.7884 20.3426 29.5447 20.6331C29.3011 20.9142 29.1605 21.2094 29.123 21.5187L29.109 20.8018C29.1558 20.4738 29.2636 20.1551 29.4323 19.8459C29.601 19.5366 29.8259 19.2555 30.107 19.0025C30.3975 18.7401 30.7396 18.5339 31.1332 18.3839C31.5268 18.234 31.9719 18.159 32.4686 18.159Z" fill="#1A0AF6"/>
</svg>
