<svg width="58" height="31" viewBox="0 0 58 31" fill="none" xmlns="http://www.w3.org/2000/svg">
<g clip-path="url(#clip0_440_127)">
<path d="M7.67957 24.3362C7.56389 24.4968 7.50486 24.6459 7.50486 24.7832C7.50486 25.1162 7.82122 25.3933 8.45394 25.6168C9.08666 25.8403 9.85631 25.98 10.7605 26.0382C10.9116 27.6867 11.0745 28.6251 11.2492 28.8556C11.0297 29.2793 10.4182 29.7054 9.42191 30.1338C8.42325 30.5623 7.29711 30.7788 6.04347 30.7788C4.38377 30.7788 2.96015 30.4272 1.77734 29.7217C0.592176 29.0186 0.00195312 28.1105 0.00195312 26.9998C0.00195312 26.7018 0.0302838 26.4387 0.0893061 26.2105L3.7959 9.85834C4.72373 9.27392 5.83335 8.81756 7.1224 8.4846C8.41145 8.15164 9.75243 7.98633 11.1454 7.98633C13.1427 7.98633 14.8496 8.31929 16.2661 8.98287C17.8786 9.7396 18.8607 10.8316 19.2102 12.2636L23.1812 28.4597C21.9748 30.0058 20.0058 30.7788 17.279 30.7788C15.9545 30.7788 14.8354 30.5436 13.917 30.0756C13.001 29.6053 12.4651 28.9371 12.314 28.0662L11.9315 25.9707C12.628 25.9591 13.3009 25.8287 13.9525 25.5749C14.6017 25.3234 14.9275 25.0603 14.9275 24.7856C14.9275 24.6016 14.852 24.4526 14.7009 24.3385C14.2594 24.6482 13.7187 24.8834 13.0813 25.0417C12.4438 25.2023 11.8513 25.2815 11.3059 25.2815C9.73827 25.2815 8.53185 24.9672 7.68429 24.3362H7.67957ZM10.3002 19.1835L10.9612 15.7142C10.7983 15.6467 10.659 15.6118 10.5433 15.6118C10.2884 15.6118 10.0971 15.7771 9.96963 16.11C9.86576 16.4313 9.66272 17.4605 9.36053 19.2021C9.49982 19.2813 9.66744 19.3232 9.86576 19.3232C10.0641 19.3232 10.2081 19.2766 10.3002 19.1858V19.1835ZM12.7059 19.1835L13.367 15.7142C13.2041 15.6467 13.0648 15.6118 12.9491 15.6118C12.6941 15.6118 12.5029 15.7771 12.3754 16.11C12.2715 16.4313 12.0685 17.4605 11.7663 19.2021C11.9056 19.2813 12.0732 19.3232 12.2715 19.3232C12.4698 19.3232 12.6138 19.2766 12.7059 19.1858V19.1835Z" fill="#1A0AF6"/>
<path d="M32.0583 7.204C31.1517 6.35647 29.9288 5.93271 28.3847 5.93271C26.8407 5.93271 25.6485 6.35647 24.8056 7.204C23.984 8.03058 23.5638 9.23667 23.5449 10.8176V24.9346C23.5449 26.9719 24.0856 28.4947 25.1645 29.5029C26.0711 30.3504 27.294 30.7742 28.838 30.7742C30.3821 30.7742 31.5743 30.3504 32.4171 29.5029C33.2387 28.6763 33.659 27.4702 33.6779 25.8892V11.7723C33.6779 9.73495 33.1372 8.21219 32.0583 7.204Z" fill="#1A0AF6"/>
<path d="M44.9629 31C41.7474 31 39.2094 30.1176 37.3537 28.355C35.4485 26.5807 34.4971 24.1499 34.4971 21.0648C34.4971 17.9797 35.4768 15.5326 37.4411 13.7235C39.2519 12.04 41.5443 11.1995 44.3207 11.1995C47.0971 11.1995 49.3211 11.9516 50.9997 13.458C52.6783 14.9645 53.5164 16.8155 53.5164 19.0135C53.5164 20.9717 52.8247 22.4479 51.4435 23.4444C50.1663 24.3828 48.424 24.8531 46.2189 24.8531C44.571 24.8531 43.1781 24.5155 42.0401 23.8402C41.948 23.9101 41.9008 24.0358 41.9008 24.2174C41.9008 24.562 42.3588 24.8764 43.2772 25.1628C44.1932 25.4724 45.2368 25.6261 46.403 25.6261C47.5693 25.6261 48.6317 25.4794 49.5902 25.1884C50.5488 24.8973 51.3161 24.5504 51.8968 24.1499C52.1754 24.3897 52.3997 24.8345 52.5673 25.4818C52.735 26.129 52.8199 26.7181 52.8199 27.2513C52.8199 27.7845 52.768 28.2549 52.6641 28.6693C51.7575 29.426 50.8297 29.9639 49.8783 30.2829C48.5326 30.7648 46.8941 31.0047 44.9676 31.0047L44.9629 31ZM44.7363 19.3721C45.317 19.3721 45.6074 19.1556 45.6074 18.7201C45.6074 18.308 45.3005 18.1008 44.6843 18.1008C44.0681 18.1008 43.714 18.4268 43.6219 19.0787C43.9477 19.2743 44.3184 19.3698 44.7363 19.3698V19.3721Z" fill="#1A0AF6"/>
<path d="M56.0523 12.8363C55.4833 12.8363 55.0111 12.678 54.6499 12.3637C54.232 12.0051 54.0195 11.4836 54.0195 10.8107C54.0195 10.1378 54.2202 9.61387 54.6145 9.25065C54.9662 8.92467 55.4384 8.76169 56.0192 8.76169C56.6 8.76169 57.0816 8.95029 57.4499 9.32283C57.8158 9.69304 58 10.1913 58 10.799C58 11.4812 57.8064 12.0028 57.4263 12.3544C57.0863 12.6757 56.6236 12.8387 56.0523 12.8387V12.8363ZM56.0216 8.94796C55.4904 8.94796 55.063 9.09465 54.7467 9.38802C54.3926 9.71632 54.2108 10.1936 54.2108 10.8107C54.2108 11.4277 54.3996 11.9003 54.775 12.2217C55.1008 12.5034 55.5305 12.6477 56.0523 12.6477C56.574 12.6477 56.9895 12.5011 57.2941 12.2147C57.6364 11.9003 57.8088 11.423 57.8088 10.7967C57.8088 10.2402 57.6411 9.7885 57.313 9.45322C56.9848 9.12026 56.5504 8.95029 56.0216 8.95029V8.94796Z" fill="#1A0AF6"/>
<path d="M56.2835 10.9597C56.5739 10.9038 56.7179 10.7501 56.7179 10.494C56.7179 10.1285 56.4818 9.94684 56.012 9.94684C55.9081 9.94684 55.7901 9.96081 55.6579 9.98642C55.528 10.012 55.4619 10.033 55.4619 10.0516V11.4812C55.4619 11.5325 55.4926 11.5581 55.5564 11.5581C55.5988 11.5581 55.6319 11.5488 55.6555 11.5278V10.976C55.7877 10.983 55.9058 10.9853 56.0073 10.9853H56.0545C56.071 10.9853 56.0852 10.9853 56.097 10.9806L56.411 11.3928C56.4983 11.5022 56.5644 11.5581 56.6117 11.5581C56.6589 11.5581 56.6943 11.5488 56.7226 11.5301C56.7486 11.5115 56.7628 11.4882 56.7628 11.4603L56.2859 10.9597H56.2835ZM56.0049 10.8246C55.8279 10.8246 55.7098 10.82 55.6531 10.8083V10.1517C55.7688 10.1285 55.8845 10.1145 55.9978 10.1145C56.3331 10.1145 56.5007 10.2379 56.5007 10.487C56.5007 10.7105 56.3354 10.8223 56.0026 10.8223L56.0049 10.8246Z" fill="#1A0AF6"/>
<path d="M17.0674 5.65795C17.0674 4.65908 16.7274 3.65089 16.1749 2.78241C15.8255 2.23524 15.3935 1.74395 14.9071 1.3458C13.807 0.447048 12.3952 0 10.9763 0C9.42516 0 7.90474 0.568124 6.7786 1.62753C5.69967 2.64271 4.91113 4.1026 4.91113 5.59742C4.91113 6.59396 5.09764 7.42985 5.4683 8.10508C6.36544 7.74185 7.3098 7.47176 8.29429 7.2948C8.23527 7.02471 8.20222 6.72668 8.20222 6.39139C8.20222 5.54153 8.56343 4.71263 9.05922 4.1352C9.57389 3.53215 10.2727 3.21083 10.9833 3.21083C11.635 3.21083 12.2818 3.46462 12.7847 3.97454C13.0066 4.20039 13.2073 4.4798 13.3655 4.78947C13.6181 5.28308 13.7739 5.85587 13.7739 6.42399C13.7739 6.72202 13.7456 6.99211 13.696 7.23892C14.7301 7.41588 15.6579 7.70692 16.4724 8.12138C16.8667 7.46943 17.065 6.64751 17.065 5.65795H17.0674Z" fill="#1A0AF6"/>
</g>
<defs>
<clipPath id="clip0_440_127">
<rect width="58" height="31" fill="white"/>
</clipPath>
</defs>
</svg>
