<svg width="62" height="62" viewBox="0 0 62 62" fill="none" xmlns="http://www.w3.org/2000/svg">
<g clip-path="url(#clip0_881_619)">
<path d="M30.74 0C36.8198 0 42.7631 1.80287 47.8182 5.18062C52.8734 8.55838 56.8134 13.3593 59.1401 18.9763C61.4667 24.5933 62.0754 30.7741 60.8893 36.7371C59.7032 42.7001 56.7755 48.1774 52.4765 52.4765C48.1774 56.7755 42.7001 59.7032 36.7371 60.8893C30.7741 62.0754 24.5933 61.4667 18.9763 59.1401C13.3593 56.8134 8.55838 52.8734 5.18062 47.8182C1.80287 42.7631 0 36.8198 0 30.74C0 22.5872 3.23867 14.7684 9.00354 9.00354C14.7684 3.23867 22.5872 0 30.74 0Z" fill="white"/>
<path d="M27.4274 29.1087H20.5266C20.0274 29.1087 19.5487 28.9105 19.1958 28.5575C18.8428 28.2046 18.6445 27.7259 18.6445 27.2267V20.3259C18.6445 19.8267 18.8428 19.348 19.1958 18.9951C19.5487 18.6421 20.0274 18.4438 20.5266 18.4438H27.4274C27.9265 18.4438 28.4052 18.6421 28.7582 18.9951C29.1111 19.348 29.3094 19.8267 29.3094 20.3259V27.2267C29.3094 27.7259 29.1111 28.2046 28.7582 28.5575C28.4052 28.9105 27.9265 29.1087 27.4274 29.1087ZM20.5266 20.3259V27.2267H27.4274V20.3259H20.5266Z" fill="#50E3C2"/>
<path d="M41.2291 29.1087H34.3283C33.8292 29.1087 33.3505 28.9105 32.9975 28.5575C32.6446 28.2046 32.4463 27.7259 32.4463 27.2267V20.3259C32.4463 19.8267 32.6446 19.348 32.9975 18.9951C33.3505 18.6421 33.8292 18.4438 34.3283 18.4438H41.2291C41.7283 18.4438 42.207 18.6421 42.5599 18.9951C42.9129 19.348 43.1112 19.8267 43.1112 20.3259V27.2267C43.1112 27.7259 42.9129 28.2046 42.5599 28.5575C42.207 28.9105 41.7283 29.1087 41.2291 29.1087ZM34.3283 20.3259V27.2267H41.2291V20.3259H34.3283Z" fill="#50E3C2"/>
<path d="M27.4274 42.9105H20.5266C20.0274 42.9105 19.5487 42.7122 19.1958 42.3593C18.8428 42.0063 18.6445 41.5276 18.6445 41.0285V34.1276C18.6445 33.6285 18.8428 33.1498 19.1958 32.7968C19.5487 32.4439 20.0274 32.2456 20.5266 32.2456H27.4274C27.9265 32.2456 28.4052 32.4439 28.7582 32.7968C29.1111 33.1498 29.3094 33.6285 29.3094 34.1276V41.0285C29.3094 41.5276 29.1111 42.0063 28.7582 42.3593C28.4052 42.7122 27.9265 42.9105 27.4274 42.9105ZM20.5266 34.1276V41.0285H27.4274V34.1276H20.5266Z" fill="#50E3C2"/>
<path d="M41.2291 42.9105H34.3283C33.8292 42.9105 33.3505 42.7122 32.9975 42.3593C32.6446 42.0063 32.4463 41.5276 32.4463 41.0285V34.1276C32.4463 33.6285 32.6446 33.1498 32.9975 32.7968C33.3505 32.4439 33.8292 32.2456 34.3283 32.2456H41.2291C41.7283 32.2456 42.207 32.4439 42.5599 32.7968C42.9129 33.1498 43.1112 33.6285 43.1112 34.1276V41.0285C43.1112 41.5276 42.9129 42.0063 42.5599 42.3593C42.207 42.7122 41.7283 42.9105 41.2291 42.9105ZM34.3283 34.1276V41.0285H41.2291V34.1276H34.3283Z" fill="#50E3C2"/>
</g>
<defs>
<clipPath id="clip0_881_619">
<rect width="61.48" height="61.48" fill="white"/>
</clipPath>
</defs>
</svg>
