<svg width="62" height="62" viewBox="0 0 62 62" fill="none" xmlns="http://www.w3.org/2000/svg">
<path d="M30.74 0C36.8198 0 42.7631 1.80287 47.8182 5.18062C52.8734 8.55838 56.8134 13.3593 59.1401 18.9763C61.4667 24.5933 62.0754 30.7741 60.8893 36.7371C59.7032 42.7001 56.7755 48.1774 52.4765 52.4765C48.1774 56.7755 42.7001 59.7032 36.7371 60.8893C30.7741 62.0754 24.5933 61.4667 18.9763 59.1401C13.3593 56.8134 8.55838 52.8734 5.18062 47.8182C1.80287 42.7631 0 36.8198 0 30.74C0 22.5872 3.23867 14.7684 9.00354 9.00354C14.7684 3.23867 22.5872 0 30.74 0Z" fill="white"/>
<path d="M41.2296 44.165H21.1545C20.6554 44.165 20.1766 43.9667 19.8237 43.6137C19.4707 43.2608 19.2725 42.7821 19.2725 42.2829V25.3446C19.2727 25.0187 19.3572 24.6985 19.5177 24.4149C19.6782 24.1313 19.9092 23.894 20.1884 23.726L25.2072 18.7072C25.3746 18.4351 25.609 18.2103 25.8879 18.0543C26.1668 17.8984 26.4811 17.8165 26.8006 17.8164H41.2296C41.7288 17.8164 42.2075 18.0147 42.5604 18.3676C42.9134 18.7206 43.1116 19.1993 43.1116 19.6984V42.2829C43.1116 42.7821 42.9134 43.2608 42.5604 43.6137C42.2075 43.9667 41.7288 44.165 41.2296 44.165ZM21.1545 25.4073V42.2829H41.2296L41.2045 19.7235H26.8383V19.7612L26.8006 19.7988V25.3697H21.2298L21.1921 25.4067L21.1545 25.4073ZM24.9186 21.6558L23.1118 23.4625H24.9186V21.6558Z" fill="#50E3C2"/>
<path d="M37.4655 32.2456H24.9186C24.669 32.2456 24.4296 32.3447 24.2532 32.5212C24.0767 32.6977 23.9775 32.9371 23.9775 33.1866C23.9775 33.4362 24.0767 33.6756 24.2532 33.852C24.4296 34.0285 24.669 34.1276 24.9186 34.1276H37.4655C37.7151 34.1276 37.9544 34.0285 38.1309 33.852C38.3074 33.6756 38.4065 33.4362 38.4065 33.1866C38.4065 32.9371 38.3074 32.6977 38.1309 32.5212C37.9544 32.3447 37.7151 32.2456 37.4655 32.2456Z" fill="#50E3C2"/>
<path d="M35.5835 36.6367H24.9186C24.669 36.6367 24.4296 36.7359 24.2532 36.9123C24.0767 37.0888 23.9775 37.3282 23.9775 37.5777C23.9775 37.8273 24.0767 38.0667 24.2532 38.2431C24.4296 38.4196 24.669 38.5188 24.9186 38.5188H35.5835C35.833 38.5188 36.0724 38.4196 36.2489 38.2431C36.4253 38.0667 36.5245 37.8273 36.5245 37.5777C36.5245 37.3282 36.4253 37.0888 36.2489 36.9123C36.0724 36.7359 35.833 36.6367 35.5835 36.6367Z" fill="#50E3C2"/>
<path d="M36.8385 29.7362H33.0744C32.5753 29.7362 32.0966 29.5379 31.7436 29.1849C31.3907 28.832 31.1924 28.3533 31.1924 27.8541V24.09C31.1924 23.5909 31.3907 23.1122 31.7436 22.7592C32.0966 22.4063 32.5753 22.208 33.0744 22.208H36.8385C37.3377 22.208 37.8164 22.4063 38.1693 22.7592C38.5223 23.1122 38.7205 23.5909 38.7205 24.09V27.8541C38.7205 28.3533 38.5223 28.832 38.1693 29.1849C37.8164 29.5379 37.3377 29.7362 36.8385 29.7362ZM33.0744 24.09V27.8541H36.8385V24.09H33.0744Z" fill="#50E3C2"/>
</svg>
