<svg width="62" height="62" viewBox="0 0 62 62" fill="none" xmlns="http://www.w3.org/2000/svg">
<g clip-path="url(#clip0_881_540)">
<path d="M30.9198 0C37.0351 0 43.0132 1.81341 48.0979 5.21092C53.1826 8.60843 57.1457 13.4374 59.4859 19.0873C61.8262 24.7372 62.4385 30.9541 61.2455 36.9519C60.0524 42.9498 57.1076 48.4592 52.7834 52.7834C48.4592 57.1076 42.9498 60.0524 36.9519 61.2455C30.9541 62.4385 24.7372 61.8262 19.0873 59.4859C13.4374 57.1457 8.60843 53.1826 5.21092 48.0979C1.81341 43.0132 0 37.0351 0 30.9198C0 22.7194 3.25761 14.8548 9.0562 9.0562C14.8548 3.25761 22.7194 0 30.9198 0Z" fill="white"/>
<path d="M25.0643 27.3863C24.4402 27.3863 23.8302 27.2013 23.3114 26.8546C22.7925 26.5079 22.3881 26.0152 22.1493 25.4387C21.9105 24.8621 21.8481 24.2278 21.9698 23.6157C22.0915 23.0037 22.392 22.4415 22.8333 22.0003C23.2745 21.559 23.8367 21.2585 24.4487 21.1368C25.0608 21.0151 25.6951 21.0775 26.2717 21.3163C26.8482 21.5551 27.3409 21.9595 27.6876 22.4784C28.0343 22.9972 28.2193 23.6072 28.2193 24.2313C28.2183 25.0677 27.8856 25.8696 27.2941 26.4611C26.7027 27.0526 25.9007 27.3853 25.0643 27.3863ZM25.0643 22.9692C24.8147 22.9692 24.5707 23.0432 24.3631 23.1819C24.1556 23.3206 23.9938 23.5177 23.8983 23.7483C23.8028 23.9789 23.7778 24.2327 23.8265 24.4775C23.8752 24.7223 23.9954 24.9471 24.1719 25.1236C24.3484 25.3001 24.5732 25.4203 24.8181 25.469C25.0629 25.5177 25.3166 25.4927 25.5472 25.3972C25.7778 25.3017 25.9749 25.1399 26.1136 24.9324C26.2523 24.7249 26.3263 24.4809 26.3263 24.2313C26.3263 23.8965 26.1933 23.5755 25.9567 23.3389C25.72 23.1022 25.399 22.9692 25.0643 22.9692Z" fill="#0072A3"/>
<path d="M41.4703 29.91H21.2778C20.7757 29.91 20.2942 29.7106 19.9392 29.3556C19.5842 29.0006 19.3848 28.5191 19.3848 28.017V20.4448C19.3848 19.9427 19.5842 19.4612 19.9392 19.1062C20.2942 18.7512 20.7757 18.5518 21.2778 18.5518H41.4703C41.9724 18.5518 42.4539 18.7512 42.8089 19.1062C43.1639 19.4612 43.3634 19.9427 43.3634 20.4448V28.017C43.3634 28.5191 43.1639 29.0006 42.8089 29.3556C42.4539 29.7106 41.9724 29.91 41.4703 29.91ZM21.2778 20.4448V28.017H41.4703V20.4448H21.2778Z" fill="#0072A3"/>
<path d="M25.0643 40.0065C24.4402 40.0065 23.8302 39.8214 23.3114 39.4747C22.7925 39.128 22.3881 38.6353 22.1493 38.0588C21.9105 37.4823 21.8481 36.8479 21.9698 36.2358C22.0915 35.6238 22.392 35.0616 22.8333 34.6204C23.2745 34.1791 23.8367 33.8787 24.4487 33.7569C25.0608 33.6352 25.6951 33.6977 26.2717 33.9365C26.8482 34.1753 27.3409 34.5797 27.6876 35.0985C28.0343 35.6174 28.2193 36.2274 28.2193 36.8514C28.2183 37.6878 27.8856 38.4898 27.2941 39.0812C26.7027 39.6727 25.9007 40.0054 25.0643 40.0065ZM25.0643 35.5893C24.8147 35.5893 24.5707 35.6634 24.3631 35.802C24.1556 35.9407 23.9938 36.1378 23.8983 36.3684C23.8028 36.599 23.7778 36.8528 23.8265 37.0976C23.8752 37.3424 23.9954 37.5673 24.1719 37.7438C24.3484 37.9203 24.5732 38.0405 24.8181 38.0892C25.0629 38.1378 25.3166 38.1129 25.5472 38.0173C25.7778 37.9218 25.9749 37.7601 26.1136 37.5525C26.2523 37.345 26.3263 37.101 26.3263 36.8514C26.3263 36.5167 26.1933 36.1957 25.9567 35.959C25.72 35.7223 25.399 35.5893 25.0643 35.5893Z" fill="#0072A3"/>
<path d="M41.4703 42.5307H21.2778C20.7757 42.5307 20.2942 42.3312 19.9392 41.9762C19.5842 41.6212 19.3848 41.1397 19.3848 40.6376V33.0654C19.3848 32.5633 19.5842 32.0818 19.9392 31.7268C20.2942 31.3718 20.7757 31.1724 21.2778 31.1724H41.4703C41.9724 31.1724 42.4539 31.3718 42.8089 31.7268C43.1639 32.0818 43.3634 32.5633 43.3634 33.0654V40.6376C43.3634 41.1397 43.1639 41.6212 42.8089 41.9762C42.4539 42.3312 41.9724 42.5307 41.4703 42.5307ZM21.2778 33.0654V40.6376H41.4703V33.0654H21.2778Z" fill="#0072A3"/>
</g>
<defs>
<clipPath id="clip0_881_540">
<rect width="61.8396" height="61.8396" fill="white"/>
</clipPath>
</defs>
</svg>
