<svg width="62" height="62" viewBox="0 0 62 62" fill="none" xmlns="http://www.w3.org/2000/svg">
<path d="M30.74 0C36.8198 0 42.7631 1.80287 47.8182 5.18062C52.8734 8.55838 56.8134 13.3593 59.1401 18.9763C61.4667 24.5933 62.0754 30.7741 60.8893 36.7371C59.7032 42.7001 56.7755 48.1774 52.4765 52.4765C48.1774 56.7755 42.7001 59.7032 36.7371 60.8893C30.7741 62.0754 24.5933 61.4667 18.9763 59.1401C13.3593 56.8134 8.55838 52.8734 5.18062 47.8182C1.80287 42.7631 0 36.8198 0 30.74C0 22.5872 3.23867 14.7684 9.00354 9.00354C14.7684 3.23867 22.5872 0 30.74 0Z" fill="white"/>
<path d="M23.6631 43.5377C23.164 43.5377 22.6853 43.3394 22.3323 42.9865C21.9794 42.6335 21.7811 42.1548 21.7811 41.6557V39.6356C20.5332 39.3512 19.4189 38.6512 18.621 37.6504C17.8231 36.6496 17.3889 35.4074 17.3896 34.1275V24.09C17.3913 22.593 17.9867 21.1579 19.0452 20.0994C20.1037 19.0409 21.5388 18.4455 23.0358 18.4438H39.3468C40.8437 18.4455 42.2789 19.0409 43.3374 20.0994C44.3959 21.1579 44.9913 22.593 44.9929 24.09V34.1275C44.9913 35.6245 44.3959 37.0596 43.3374 38.1181C42.2789 39.1766 40.8437 39.772 39.3468 39.7736H28.6192L24.9178 43.0609C24.5726 43.369 24.1258 43.5388 23.6631 43.5377ZM23.0358 20.3259C22.0378 20.3271 21.0811 20.724 20.3754 21.4296C19.6698 22.1353 19.2729 23.092 19.2717 24.09V34.1275C19.2729 35.1255 19.6698 36.0822 20.3754 36.7878C21.0811 37.4935 22.0378 37.8904 23.0358 37.8916H23.6631V41.6557L27.8977 37.8916H39.3468C40.3447 37.8904 41.3015 37.4935 42.0071 36.7878C42.7128 36.0822 43.1097 35.1255 43.1109 34.1275V24.09C43.1097 23.092 42.7128 22.1353 42.0071 21.4296C41.3015 20.724 40.3447 20.3271 39.3468 20.3259H23.0358Z" fill="#50E3C2"/>
<path d="M31.1917 28.1675C31.3777 28.1675 31.5596 28.2227 31.7143 28.326C31.869 28.4294 31.9895 28.5763 32.0607 28.7482C32.1319 28.9201 32.1506 29.1092 32.1143 29.2917C32.078 29.4741 31.9884 29.6418 31.8568 29.7733C31.7253 29.9049 31.5576 29.9945 31.3752 30.0308C31.1927 30.0671 31.0036 30.0484 30.8317 29.9772C30.6598 29.906 30.5129 29.7855 30.4095 29.6308C30.3061 29.4761 30.251 29.2942 30.251 29.1082C30.251 28.8587 30.3501 28.6194 30.5265 28.443C30.7029 28.2666 30.9422 28.1675 31.1917 28.1675Z" fill="#50E3C2"/>
<path d="M37.4641 28.1675C37.6502 28.1675 37.832 28.2227 37.9867 28.326C38.1414 28.4294 38.262 28.5763 38.3332 28.7482C38.4044 28.9201 38.423 29.1092 38.3867 29.2917C38.3504 29.4741 38.2608 29.6418 38.1293 29.7733C37.9977 29.9049 37.8301 29.9945 37.6476 30.0308C37.4652 30.0671 37.276 30.0484 37.1041 29.9772C36.9322 29.906 36.7853 29.7855 36.682 29.6308C36.5786 29.4761 36.5234 29.2942 36.5234 29.1082C36.5234 28.8587 36.6225 28.6194 36.799 28.443C36.9754 28.2666 37.2146 28.1675 37.4641 28.1675Z" fill="#50E3C2"/>
<path d="M24.9924 28.1675C25.1785 28.1675 25.3604 28.2227 25.515 28.326C25.6697 28.4294 25.7903 28.5763 25.8615 28.7482C25.9327 28.9201 25.9513 29.1092 25.915 29.2917C25.8787 29.4741 25.7892 29.6418 25.6576 29.7733C25.526 29.9049 25.3584 29.9945 25.176 30.0308C24.9935 30.0671 24.8043 30.0484 24.6325 29.9772C24.4606 29.906 24.3137 29.7855 24.2103 29.6308C24.1069 29.4761 24.0518 29.2942 24.0518 29.1082C24.0518 28.8587 24.1509 28.6194 24.3273 28.443C24.5037 28.2666 24.743 28.1675 24.9924 28.1675Z" fill="#50E3C2"/>
</svg>
