<svg width="62" height="62" viewBox="0 0 62 62" fill="none" xmlns="http://www.w3.org/2000/svg">
<g clip-path="url(#clip0_881_627)">
<path d="M30.74 0C36.8198 0 42.7631 1.80287 47.8182 5.18062C52.8734 8.55838 56.8134 13.3593 59.1401 18.9763C61.4667 24.5933 62.0754 30.7741 60.8893 36.7371C59.7032 42.7001 56.7755 48.1774 52.4765 52.4765C48.1774 56.7755 42.7001 59.7032 36.7371 60.8893C30.7741 62.0754 24.5933 61.4667 18.9763 59.1401C13.3593 56.8134 8.55838 52.8734 5.18062 47.8182C1.80287 42.7631 0 36.8198 0 30.74C0 22.5872 3.23867 14.7684 9.00354 9.00354C14.7684 3.23867 22.5872 0 30.74 0Z" fill="white"/>
<path d="M31.1917 44.1655C28.0077 44.1633 24.9224 43.0607 22.4582 41.0444C19.9941 39.028 18.3026 36.2219 17.6704 33.1013C17.0382 29.9807 17.5041 26.7376 18.9891 23.9211C20.4741 21.1047 22.887 18.8881 25.8191 17.6469C29.1872 16.2475 32.9722 16.2379 36.3474 17.62C39.7226 19.0021 42.4138 21.6636 43.8331 25.0233C45.2524 28.3831 45.2846 32.1679 43.9225 35.5513C42.5605 38.9346 39.9149 41.6415 36.5637 43.0808C34.8642 43.8 33.0371 44.169 31.1917 44.1655ZM31.1917 18.4442C28.4413 18.445 25.7758 19.3966 23.6467 21.1379C21.5177 22.8791 20.0562 25.3029 19.5098 27.9985C18.9634 30.694 19.3658 33.4956 20.6488 35.9285C21.9317 38.3613 24.0163 40.2758 26.5494 41.3474C29.4623 42.5787 32.745 42.6023 35.6754 41.4131C38.6058 40.224 40.9438 37.9195 42.175 35.0065C43.4062 32.0936 43.4299 28.8108 42.2407 25.8805C41.0516 22.9501 38.747 20.6121 35.8341 19.3809C34.3655 18.7594 32.7864 18.4408 31.1917 18.4442Z" fill="#50E3C2"/>
<path d="M28.6828 35.3805C28.1837 35.3805 27.705 35.1822 27.352 34.8293C26.9991 34.4763 26.8008 33.9976 26.8008 33.4985V27.225C26.7998 26.9772 26.8478 26.7317 26.9419 26.5025C27.036 26.2733 27.1745 26.0649 27.3494 25.8893C27.5242 25.7138 27.732 25.5745 27.9609 25.4794C28.1897 25.3844 28.435 25.3354 28.6828 25.3354C28.9746 25.3358 29.2623 25.4037 29.5235 25.5337L35.797 28.6704V28.6767C36.11 28.8329 36.3733 29.0732 36.5573 29.3706C36.7414 29.6681 36.8388 30.011 36.8388 30.3608C36.8388 30.7106 36.7414 31.0535 36.5573 31.351C36.3733 31.6485 36.11 31.8888 35.797 32.0449L29.5235 35.1817C29.2624 35.3119 28.9746 35.3799 28.6828 35.3805ZM28.6828 27.225V33.4985L34.9563 30.3618L28.6828 27.225Z" fill="#50E3C2"/>
</g>
<defs>
<clipPath id="clip0_881_627">
<rect width="61.48" height="61.48" fill="white"/>
</clipPath>
</defs>
</svg>
