<svg width="62" height="62" viewBox="0 0 62 62" fill="none" xmlns="http://www.w3.org/2000/svg">
<g clip-path="url(#clip0_881_531)">
<path d="M30.9198 0C37.0351 0 43.0132 1.81341 48.0979 5.21092C53.1826 8.60843 57.1457 13.4374 59.4859 19.0873C61.8262 24.7372 62.4385 30.9541 61.2455 36.9519C60.0524 42.9498 57.1076 48.4592 52.7834 52.7834C48.4592 57.1076 42.9498 60.0524 36.9519 61.2455C30.9541 62.4385 24.7372 61.8262 19.0873 59.4859C13.4374 57.1457 8.60843 53.1826 5.21092 48.0979C1.81341 43.0132 0 37.0351 0 30.9198C0 22.7194 3.25761 14.8548 9.0562 9.0562C14.8548 3.25761 22.7194 0 30.9198 0Z" fill="white"/>
<path d="M25.091 28.648H25.0645C24.7194 28.6478 24.3789 28.569 24.0688 28.4177C23.7586 28.2664 23.487 28.0465 23.2744 27.7747C22.785 27.1212 22.5309 26.3216 22.5531 25.5055C22.5468 23.6485 24.4089 22.0539 25.2097 21.4544C26.055 20.7232 27.1118 20.2811 28.2259 20.1924H28.2449C28.6081 20.1914 28.9679 20.2623 29.3036 20.4009C29.6393 20.5395 29.9443 20.7431 30.201 21.0001C30.4437 21.2815 30.6251 21.6104 30.7337 21.9657C30.8424 22.3211 30.8758 22.6951 30.832 23.0641C30.8671 23.6833 30.684 24.2951 30.3146 24.7931C29.9111 25.2827 29.3869 25.6588 28.7938 25.8842C28.6053 25.949 28.4346 26.057 28.2953 26.1997C28.1849 26.3382 28.0936 26.491 28.024 26.654C27.7913 27.242 27.3872 27.7466 26.8642 28.1021C26.3412 28.4577 25.7235 28.6479 25.091 28.648ZM28.2386 22.0854H28.2196C27.5174 22.1937 26.8606 22.5002 26.3266 22.9689C25.4495 23.6226 24.4272 24.6726 24.4335 25.4929C24.4335 26.1303 24.749 26.755 25.0645 26.755C25.8659 26.755 26.0742 26.3328 26.3405 25.799C26.4918 25.454 26.7004 25.1372 26.9576 24.8619C27.2675 24.5481 27.6401 24.3032 28.0511 24.1432C28.3605 24.0351 28.6362 23.8477 28.8506 23.5999C28.9802 23.1892 28.9802 22.7485 28.8506 22.3378C28.6878 22.1765 28.4678 22.0858 28.2386 22.0854Z" fill="#0072A3"/>
<path d="M19.4845 44.4865H19.4548C19.2759 44.4862 19.0978 44.4628 18.9248 44.4171C18.5229 44.2915 18.1724 44.0393 17.9256 43.6981C17.6788 43.3569 17.549 42.9451 17.5555 42.524C17.613 40.5552 18.1317 38.6273 19.0699 36.8954C17.6593 34.1335 17.2142 30.9788 17.8054 27.9345C18.3967 24.8901 19.9903 22.1314 22.3321 20.0983C24.6739 18.0651 27.629 16.8747 30.7262 16.7167C33.8235 16.5588 36.8844 17.4425 39.4208 19.2269L39.6164 19.0875C40.2389 18.4098 41.0965 17.9951 42.0143 17.9283C42.2733 17.9265 42.53 17.9774 42.7687 18.0781C43.0074 18.1788 43.2231 18.3271 43.4025 18.5139C43.9072 19.0115 44.1955 19.6879 44.2049 20.3966C44.2144 21.1052 43.9442 21.7891 43.453 22.3L42.9728 22.931L42.9987 22.9114C44.6737 25.4841 45.4488 28.5394 45.2026 31.5994C44.9565 34.6594 43.7029 37.5516 41.6381 39.8233C39.5733 42.0951 36.8138 43.6184 33.7911 44.1549C30.7684 44.6914 27.6532 44.2109 24.9327 42.7884C24.1853 43.0105 23.4098 43.1231 22.6301 43.1229H22.5721C22.5127 43.1178 22.4522 43.1153 22.3922 43.1153C21.8766 43.1156 21.3775 43.297 20.9819 43.6277C20.8285 43.8887 20.6097 44.1052 20.3471 44.2558C20.0845 44.4064 19.7872 44.4859 19.4845 44.4865ZM41.7228 24.477C37.9076 29.2431 35.3773 32.2347 34.2011 33.368C32.7394 34.7062 31.0007 35.7057 29.1088 36.2953C29.4623 37.022 29.574 37.8428 29.4275 38.6376C29.281 39.4324 28.8841 40.1594 28.2947 40.7124C27.9245 41.0843 27.5235 41.4242 27.0958 41.7283C28.46 42.2581 29.9107 42.5298 31.3741 42.5297H31.3804C33.4918 42.5297 35.5657 41.9721 37.3923 40.9133C39.219 39.8545 40.7337 38.3322 41.7832 36.5001C42.8328 34.6681 43.3799 32.5914 43.3693 30.4801C43.3586 28.3688 42.7907 26.2977 41.7228 24.4764V24.477ZM24.5654 34.914C24.0578 34.9432 23.5612 35.0739 23.105 35.2982C22.6487 35.5226 22.242 35.8361 21.9089 36.2202C20.8342 37.3712 20.0837 38.7864 19.7338 40.3218C19.5511 41.0447 19.447 41.7852 19.4233 42.5304V42.5272C19.6302 42.2791 19.8766 42.067 20.1527 41.8993C20.8761 41.4648 21.7069 41.2422 22.5506 41.257H22.6074C23.4249 41.2557 24.2335 41.087 24.9834 40.7615C25.7333 40.4359 26.4086 39.9603 26.9677 39.3639C27.1817 39.1643 27.3483 38.9194 27.4554 38.6471C27.5625 38.3748 27.6074 38.082 27.5867 37.7902C27.4416 36.9289 26.999 36.1458 26.3361 35.5772C25.8437 35.1526 25.2162 34.9175 24.5661 34.914H24.5654ZM31.3741 18.5921C28.2018 18.5921 25.1587 19.8494 22.9115 22.0885C20.6643 24.3277 19.3962 27.3662 19.3848 30.5385C19.3712 32.1501 19.6868 33.7474 20.3124 35.2327L20.3313 35.2106C20.4058 35.1248 20.4834 35.0364 20.5648 34.9582C21.0688 34.3899 21.6824 33.9294 22.3688 33.6041C23.0552 33.2788 23.8002 33.0955 24.5591 33.0651C24.8904 33.0668 25.2205 33.1049 25.5435 33.1787C26.4019 31.354 27.4488 29.624 28.667 28.017C30.1253 26.1965 34.998 22.4912 37.7732 20.4448C35.8583 19.2345 33.6394 18.592 31.3741 18.5921ZM41.9872 19.827C41.838 19.8483 41.6946 19.8993 41.5656 19.9772C41.3164 20.1167 41.0852 20.2863 40.8772 20.482L40.7573 20.6082C40.6702 20.6713 32.0436 26.8584 30.1373 29.19C29.108 30.5466 28.214 32.0006 27.4681 33.5314L28.4904 34.5537C30.1305 34.0475 31.6387 33.1857 32.9075 32.0296C35.0182 29.9996 41.7184 21.4872 42.0023 21.1257L42.0067 21.12L42.0635 21.0569C42.1493 20.9817 42.2181 20.889 42.2652 20.7851C42.3123 20.6811 42.3366 20.5684 42.3366 20.4543C42.3366 20.3402 42.3123 20.2274 42.2652 20.1235C42.2181 20.0195 42.1493 19.9269 42.0635 19.8516C42.053 19.8427 42.0409 19.836 42.0278 19.8317C42.0147 19.8275 42.0009 19.8259 41.9872 19.827Z" fill="#0072A3"/>
<path d="M32.9525 37.4824C33.2645 37.4824 33.5695 37.5749 33.829 37.7483C34.0884 37.9216 34.2906 38.168 34.41 38.4563C34.5294 38.7445 34.5606 39.0617 34.4998 39.3677C34.4389 39.6737 34.2887 39.9548 34.068 40.1755C33.8474 40.3961 33.5663 40.5463 33.2603 40.6072C32.9543 40.6681 32.6371 40.6368 32.3488 40.5174C32.0606 40.398 31.8142 40.1958 31.6409 39.9364C31.4675 39.677 31.375 39.372 31.375 39.06C31.375 38.6416 31.5412 38.2403 31.8371 37.9445C32.1329 37.6486 32.5342 37.4824 32.9525 37.4824Z" fill="#0072A3"/>
<path d="M38.0004 34.3271C38.3124 34.3271 38.6174 34.4197 38.8768 34.593C39.1363 34.7664 39.3384 35.0127 39.4578 35.301C39.5772 35.5892 39.6085 35.9064 39.5476 36.2125C39.4868 36.5185 39.3365 36.7996 39.1159 37.0202C38.8953 37.2408 38.6142 37.391 38.3082 37.4519C38.0021 37.5128 37.685 37.4815 37.3967 37.3621C37.1084 37.2427 36.8621 37.0405 36.6887 36.7811C36.5154 36.5217 36.4229 36.2167 36.4229 35.9047C36.4229 35.4863 36.5891 35.085 36.8849 34.7892C37.1807 34.4934 37.582 34.3271 38.0004 34.3271Z" fill="#0072A3"/>
<path d="M40.5248 29.2793C40.8368 29.2793 41.1418 29.3718 41.4012 29.5452C41.6607 29.7185 41.8629 29.9649 41.9823 30.2531C42.1017 30.5414 42.1329 30.8586 42.072 31.1646C42.0112 31.4706 41.8609 31.7517 41.6403 31.9723C41.4197 32.1929 41.1386 32.3432 40.8326 32.4041C40.5266 32.4649 40.2094 32.4337 39.9211 32.3143C39.6328 32.1949 39.3865 31.9927 39.2131 31.7333C39.0398 31.4738 38.9473 31.1688 38.9473 30.8568C38.9473 30.4384 39.1135 30.0372 39.4093 29.7413C39.7052 29.4455 40.1064 29.2793 40.5248 29.2793Z" fill="#0072A3"/>
</g>
<defs>
<clipPath id="clip0_881_531">
<rect width="61.8396" height="61.8396" fill="white"/>
</clipPath>
</defs>
</svg>
