<svg width="62" height="62" viewBox="0 0 62 62" fill="none" xmlns="http://www.w3.org/2000/svg">
<g clip-path="url(#clip0_881_525)">
<path d="M30.9198 0C37.0351 0 43.0132 1.81341 48.0979 5.21092C53.1826 8.60843 57.1457 13.4374 59.4859 19.0873C61.8262 24.7372 62.4385 30.9541 61.2455 36.9519C60.0524 42.9498 57.1076 48.4592 52.7834 52.7834C48.4592 57.1076 42.9498 60.0524 36.9519 61.2455C30.9541 62.4385 24.7372 61.8262 19.0873 59.4859C13.4374 57.1457 8.60843 53.1826 5.21092 48.0979C1.81341 43.0132 0 37.0351 0 30.9198C0 22.7194 3.25761 14.8548 9.0562 9.0562C14.8548 3.25761 22.7194 0 30.9198 0Z" fill="white"/>
<path d="M38.9574 44.78C38.7893 44.7802 38.6241 44.7355 38.479 44.6507C38.3338 44.5659 38.2138 44.4439 38.1314 44.2973L34.9764 39.2492C34.8844 39.0992 34.8363 38.9265 34.8375 38.7507H27.8964C27.8975 38.9265 27.8495 39.0992 27.7575 39.2492L24.6024 44.2973C24.4637 44.4971 24.2534 44.6359 24.0151 44.6847C23.7768 44.7336 23.5289 44.6889 23.3227 44.5598C23.1165 44.4308 22.9679 44.2273 22.9078 43.9916C22.8476 43.7559 22.8805 43.5061 22.9997 43.294L25.8392 38.7444H20.646C20.1439 38.7444 19.6624 38.5449 19.3074 38.1899C18.9524 37.8349 18.7529 37.3534 18.7529 36.8513V22.9689C18.7529 22.4669 18.9524 21.9854 19.3074 21.6304C19.6624 21.2753 20.1439 21.0759 20.646 21.0759H30.1112V19.1829C30.1112 18.9318 30.2109 18.6911 30.3884 18.5136C30.566 18.3361 30.8067 18.2363 31.0577 18.2363C31.3088 18.2363 31.5495 18.3361 31.727 18.5136C31.9045 18.6911 32.0043 18.9318 32.0043 19.1829V21.0759H42.1005C42.6 21.0804 43.0776 21.2817 43.4297 21.6361C43.7817 21.9905 43.9798 22.4694 43.981 22.9689V36.8513C43.981 37.3534 43.7815 37.8349 43.4265 38.1899C43.0715 38.5449 42.59 38.7444 42.0879 38.7444H36.8946L39.7342 43.294C39.8318 43.4345 39.8894 43.5989 39.901 43.7696C39.9126 43.9403 39.8777 44.111 39.8 44.2634C39.7223 44.4159 39.6048 44.5444 39.4598 44.6354C39.3149 44.7264 39.1481 44.7763 38.977 44.78H38.9574ZM20.646 22.9689V36.8513H42.1005V22.9689H20.646Z" fill="#0072A3"/>
<path d="M25.9213 33.1977C26.0215 33.2716 26.1353 33.325 26.2562 33.3549C26.3771 33.3848 26.5027 33.3905 26.6258 33.3717C26.7489 33.353 26.8671 33.3101 26.9736 33.2456C27.0801 33.1811 27.1728 33.0962 27.2464 32.9958L29.7326 29.5946L32.3577 33.0084C32.4457 33.1272 32.5603 33.2236 32.6924 33.2901C32.8244 33.3566 32.9702 33.3912 33.118 33.3912C33.2659 33.3912 33.4117 33.3566 33.5437 33.2901C33.6757 33.2236 33.7904 33.1272 33.8784 33.0084L37.0335 28.5913C37.1125 28.4906 37.1702 28.375 37.2032 28.2514C37.2362 28.1278 37.2439 27.9988 37.2256 27.8721C37.2074 27.7455 37.1637 27.6239 37.0971 27.5146C37.0305 27.4053 36.9425 27.3107 36.8383 27.2364C36.7342 27.1621 36.616 27.1097 36.491 27.0824C36.366 27.0551 36.2368 27.0534 36.1111 27.0774C35.9855 27.1014 35.866 27.1506 35.7599 27.2221C35.6538 27.2936 35.5633 27.3859 35.4938 27.4933L33.0833 30.8692L30.4722 27.4681C30.3838 27.3497 30.2684 27.2541 30.1355 27.1894C30.0027 27.1246 29.8564 27.0925 29.7087 27.0958C29.5623 27.0975 29.4182 27.1331 29.2879 27.1999C29.1576 27.2667 29.0446 27.3628 28.9578 27.4807L25.727 31.8978C25.5848 32.0976 25.5258 32.3448 25.5623 32.5872C25.5988 32.8297 25.7279 33.0486 25.9226 33.1977H25.9213Z" fill="#0072A3"/>
</g>
<defs>
<clipPath id="clip0_881_525">
<rect width="61.8396" height="61.8396" fill="white"/>
</clipPath>
</defs>
</svg>
