<svg width="126" height="123" viewBox="0 0 126 123" fill="none" xmlns="http://www.w3.org/2000/svg">
<path d="M29.9395 60L30.4993 59.1714L29.5288 58.5157L29.0334 59.577L29.9395 60ZM63.986 83L63.4263 83.8286L64.2307 84.372L64.7977 83.5841L63.986 83ZM123.987 0.839118C123.898 0.294027 123.384 -0.0758264 122.839 0.0130264L113.956 1.46097C113.411 1.54982 113.041 2.06373 113.13 2.60882C113.219 3.15391 113.733 3.52377 114.278 3.43491L122.174 2.14786L123.461 10.0436C123.55 10.5887 124.064 10.9586 124.609 10.8697C125.154 10.7809 125.524 10.267 125.435 9.72188L123.987 0.839118ZM1.90615 122.423L30.8457 60.423L29.0334 59.577L0.0938516 121.577L1.90615 122.423ZM29.3798 60.8286L63.4263 83.8286L64.5458 82.1714L30.4993 59.1714L29.3798 60.8286ZM64.7977 83.5841L123.812 1.58413L122.188 0.415865L63.1744 82.4159L64.7977 83.5841Z" fill="#067443"/>
</svg>
