<svg width="101" height="68" viewBox="0 0 101 68" fill="none" xmlns="http://www.w3.org/2000/svg">
<g style="mix-blend-mode:hard-light" opacity="0.6">
<path d="M46.13 67.94C71.6069 67.94 92.26 62.1331 92.26 54.97C92.26 47.8069 71.6069 42 46.13 42C20.6531 42 0 47.8069 0 54.97C0 62.1331 20.6531 67.94 46.13 67.94Z" fill="#25445E"/>
</g>
<circle cx="69" cy="31" r="31" fill="#7CB71B"/>
<path d="M91.6432 37.5658C91.2732 37.6058 91.0032 37.6558 90.5632 37.7058C90.4032 37.7458 90.3132 37.7558 90.1332 37.8158C89.3132 38.0758 88.2132 38.7058 87.1532 39.4358C85.0032 40.9258 82.8032 42.7358 80.4932 44.4458C74.5832 48.9458 66.9532 53.1858 59.3232 51.0758C54.9032 49.8358 50.9432 47.0458 48.0932 43.4458C40.5232 33.9458 41.6432 19.1158 49.7832 10.2158C57.3132 2.47579 69.8832 1.27579 81.0132 2.32579C82.1132 2.71579 82.0932 2.50579 83.1132 3.01579C82.3932 2.94579 69.5032 2.78579 63.8032 4.12579C55.7932 6.07579 50.4332 10.6458 47.5832 18.7558C44.7932 26.1458 45.8132 35.0658 50.9432 41.0458C53.2132 43.6858 56.1732 45.6958 59.4732 46.7258C66.0932 48.7358 72.3732 44.5658 77.4832 40.4258C79.6332 38.7058 81.7032 36.8458 84.1132 35.0358C85.4532 34.0558 87.1832 32.8358 89.1732 32.3158C89.3532 32.2658 89.6932 32.1758 89.8732 32.1558C90.4832 32.0358 91.5732 31.8558 92.2032 31.8258C96.0832 31.6858 97.3632 31.6358 100.053 32.7458C99.8932 34.7258 99.6832 36.4458 99.1132 38.4158C96.7532 37.5558 94.1532 37.3358 91.6432 37.5658Z" fill="white"/>
</svg>
